<svg width="14" height="14" viewBox="0 0 14 14" fill="none" xmlns="http://www.w3.org/2000/svg">
<path fill-rule="evenodd" clip-rule="evenodd" d="M4.14194 0.614766C3.86726 0.701638 3.69621 0.844601 3.56517 1.0969L3.49295 1.23597V3.13204V5.02814L3.30752 5.0979C2.86009 5.26626 2.46977 5.49792 2.06264 5.83676C1.74216 6.10352 1.56239 6.30186 1.31686 6.65967C0.954071 7.18835 0.721423 7.76277 0.617894 8.3854C0.535039 8.88348 0.565882 9.61888 0.689314 10.09C0.904995 10.9132 1.26203 11.5234 1.87477 12.1159C2.76784 12.9794 3.97141 13.398 5.20814 13.2752C6.32941 13.1639 7.33135 12.6388 8.02865 11.7968C8.52278 11.2001 8.78203 10.6681 8.95241 9.90095C9.04453 9.48615 9.05232 8.71051 8.96857 8.29015C8.81204 7.50444 8.41393 6.72374 7.89261 6.18023C7.66422 5.94211 7.65668 5.92959 7.69757 5.85573C7.73119 5.79497 7.74034 5.5643 7.74121 4.75242C7.74223 3.76978 7.74485 3.72457 7.80206 3.69395C7.83738 3.67503 8.10776 3.66196 8.46319 3.66196C8.98306 3.66196 9.06709 3.66857 9.08332 3.71085C9.09364 3.73774 9.10214 5.81333 9.1022 8.32331C9.10229 12.7921 9.10356 12.8889 9.16253 12.9857C9.28763 13.1908 9.62764 13.19 9.75351 12.9841C9.81161 12.8891 9.81281 12.7785 9.80521 8.20489L9.79742 3.52289L9.72097 3.37322C9.63539 3.20566 9.48597 3.06112 9.32066 2.98593C9.22835 2.94393 9.08607 2.93571 8.45309 2.93571H7.69593L7.51857 3.0228C7.3287 3.11603 7.16243 3.29117 7.07089 3.49437C7.02355 3.5995 7.01496 3.73567 7.00633 4.51955C7.00086 5.01671 6.98652 5.4235 6.97447 5.4235C6.96239 5.4235 6.91986 5.40063 6.87994 5.37267C6.84001 5.3447 6.6895 5.2696 6.54546 5.20578L6.28358 5.08977L6.28812 3.16286L6.29263 1.23597L6.1963 1.04325C6.0827 0.816015 5.93052 0.679758 5.72016 0.616991C5.52058 0.557439 4.32848 0.55577 4.14194 0.614766ZM5.5488 1.34414C5.56629 1.37186 5.57825 2.0969 5.57853 3.14852L5.57899 4.90654L5.43559 4.88688C5.35676 4.87606 5.0508 4.86723 4.7557 4.86723H4.2192V3.1249C4.2192 1.76839 4.22776 1.37566 4.25783 1.35125C4.32758 1.29463 4.41374 1.28755 4.9698 1.29268C5.42094 1.29685 5.52478 1.3061 5.5488 1.34414ZM5.22359 5.58139C6.73796 5.76697 7.96542 6.91909 8.25063 8.42267C8.30604 8.71472 8.31426 9.37258 8.2659 9.64398C8.10325 10.5566 7.57692 11.3971 6.83964 11.9217C6.55009 12.1277 6.05232 12.3608 5.68715 12.4613C5.39894 12.5407 5.33852 12.5464 4.79093 12.5451C4.25588 12.5439 4.17711 12.5366 3.90379 12.4625C3.34133 12.3101 2.81741 12.0169 2.40126 11.6217C1.70786 10.9632 1.33738 10.1513 1.29334 9.19382C1.19497 7.05463 3.08319 5.31908 5.22359 5.58139ZM11.1569 6.09756C10.9591 6.19225 10.8101 6.33808 10.7093 6.53569C10.6484 6.65501 10.6473 6.71496 10.6473 9.84396V13.0307L10.7354 13.1188C10.9057 13.2891 11.1869 13.2598 11.3054 13.0593C11.3541 12.9768 11.3581 12.738 11.3581 9.89591C11.3581 7.07632 11.3623 6.81824 11.4091 6.77934C11.4784 6.72176 12.6076 6.69939 12.6738 6.75427C12.7114 6.78552 12.7179 7.24287 12.7179 9.88157C12.7179 12.953 12.7183 12.973 12.7818 13.0758C12.9041 13.2736 13.2184 13.2849 13.3664 13.0968C13.4279 13.0186 13.4287 12.979 13.4287 9.83765C13.4287 7.03887 13.423 6.64391 13.3809 6.54279C13.2998 6.34776 13.1765 6.19586 13.0291 6.10918L12.8879 6.02614L12.1152 6.01742L11.3426 6.00868L11.1569 6.09756ZM4.59676 6.49159C4.47289 6.57833 4.43553 6.69763 4.43553 7.0063V7.29417L4.2862 7.3472C3.84872 7.50256 3.54079 7.97459 3.5776 8.43336C3.60977 8.83391 3.8647 9.1993 4.22745 9.36479C4.36646 9.42817 4.4719 9.44974 4.70647 9.46275C5.06453 9.48263 5.18465 9.53 5.25548 9.6793C5.32601 9.82789 5.29736 9.98417 5.17764 10.104L5.08347 10.1982L4.51999 10.216C4.21008 10.2257 3.93247 10.2445 3.90305 10.2576C3.81853 10.2955 3.72473 10.4732 3.72473 10.5954C3.72473 10.8195 3.93405 10.9529 4.28874 10.9546L4.43553 10.9554V11.1901C4.43553 11.4647 4.48686 11.5777 4.64577 11.6531C4.78407 11.7187 4.94394 11.6879 5.05825 11.5735C5.14219 11.4896 5.14633 11.4723 5.14633 11.204C5.14633 10.9635 5.15421 10.9199 5.20041 10.9042C5.54061 10.789 5.76967 10.5977 5.91025 10.3114C6.02886 10.0699 6.04586 9.71889 5.95117 9.46659C5.76806 8.97873 5.34847 8.73134 4.70285 8.73051C4.5386 8.73029 4.51245 8.72065 4.41699 8.62519C4.33206 8.54026 4.31191 8.4961 4.31191 8.39486C4.31191 8.23681 4.36096 8.12809 4.46347 8.0589C4.53004 8.01396 4.63913 8.00206 5.10452 7.98893C5.72708 7.97138 5.75635 7.9618 5.8477 7.74584C5.90475 7.61097 5.87675 7.49356 5.76102 7.38256C5.67776 7.30264 5.6412 7.29157 5.41486 7.27776L5.16178 7.26231L5.14633 6.94288C5.13116 6.62917 5.12908 6.62185 5.02994 6.5334C4.91325 6.42928 4.71327 6.40997 4.59676 6.49159Z" fill="#4278B8"/>
</svg>
