<svg width="41" height="20" viewBox="0 0 41 20" fill="none" xmlns="http://www.w3.org/2000/svg">
<path d="M41 2C41 0.895431 40.1046 0 39 0H34C32.8954 0 32 0.895431 32 2V20H41V2Z" fill="url(#paint0_linear_1_287)"/>
<path d="M30 6.2461C30 5.14153 29.1046 4.24609 28 4.24609H23C21.8954 4.24609 21 5.14152 21 6.24609V20.0003H30V6.2461Z" fill="url(#paint1_linear_1_287)"/>
<path d="M19 15.4082C19 14.3036 18.1046 13.4082 17 13.4082H12C10.8954 13.4082 10 14.3036 10 15.4082V20.0004H19V15.4082Z" fill="url(#paint2_linear_1_287)"/>
<path d="M8 20C8 18.8954 7.10457 18 6 18H2C0.895431 18 0 18.8954 0 20H8Z" fill="url(#paint3_linear_1_287)"/>
<defs>
<linearGradient id="paint0_linear_1_287" x1="41" y1="13.5" x2="22.5" y2="13.5" gradientUnits="userSpaceOnUse">
<stop stop-color="#21BA25"/>
<stop offset="1" stop-color="#27D02B"/>
</linearGradient>
<linearGradient id="paint1_linear_1_287" x1="30" y1="14.8802" x2="11.5" y2="14.8802" gradientUnits="userSpaceOnUse">
<stop stop-color="#27D02B"/>
<stop offset="1" stop-color="#6FED71"/>
</linearGradient>
<linearGradient id="paint2_linear_1_287" x1="19" y1="17.8579" x2="0.5" y2="17.8579" gradientUnits="userSpaceOnUse">
<stop stop-color="#6FED71"/>
<stop offset="1" stop-color="#A0FBA2"/>
</linearGradient>
<linearGradient id="paint3_linear_1_287" x1="8" y1="19.35" x2="-8.44444" y2="19.35" gradientUnits="userSpaceOnUse">
<stop stop-color="#A0FBA2"/>
<stop offset="1" stop-color="#E7FFE7"/>
</linearGradient>
</defs>
</svg>
