<svg width="34" height="20" viewBox="0 0 34 20" fill="none"
    xmlns="http://www.w3.org/2000/svg">
    <g clip-path="url(#clip0_1_513)">
        <path d="M0 20.5L2.55574 9.57185C2.75423 8.72315 3.86785 8.51692 4.35708 9.23827L4.94551 10.1059C5.42263 10.8094 6.50428 10.6345 6.73543 9.81653L8.51152 3.5315C8.76159 2.64659 9.97288 2.53989 10.3738 3.36746L11.7276 6.16209C12.0163 6.75808 12.7942 6.91389 13.2902 6.47509L14.4529 5.4465C14.9293 5.02499 15.673 5.14963 15.986 5.70344L18.1667 9.5618C18.3441 9.87568 18.6767 10.0698 19.0373 10.0698H20.9459C21.3065 10.0698 21.6391 9.87568 21.8165 9.5618L23.7345 6.16826C24.1173 5.49097 25.0928 5.49097 25.4756 6.16826L26.6284 8.2079C27.0459 8.94654 28.1356 8.86242 28.4348 8.06846L29.6781 4.7685C30.019 3.8638 31.3177 3.92134 31.5772 4.85264L34.5476 15.5116" stroke="url(#paint0_linear_1_513)" stroke-linecap="round" stroke-linejoin="round"/>
    </g>
    <defs>
        <linearGradient id="paint0_linear_1_513" x1="32.5" y1="1" x2="-3.5" y2="29" gradientUnits="userSpaceOnUse">
            <stop stop-color="#F9B5B7"/>
            <stop offset="1" stop-color="#ED3237"/>
        </linearGradient>
        <clipPath id="clip0_1_513">
            <rect width="34" height="20" fill="white"/>
        </clipPath>
    </defs>
</svg>
