<svg width="52" height="52" viewBox="0 0 52 52" fill="none" xmlns="http://www.w3.org/2000/svg">
<g filter="url(#filter0_d_1_1610)">
<circle cx="22" cy="20" r="16" fill="white"/>
</g>
<path fill-rule="evenodd" clip-rule="evenodd" d="M21.6963 10.0654C18.8897 11.3379 16.9144 12.2593 16.8459 12.3278C16.7618 12.4118 16.7584 12.5336 16.7641 15.1949C16.7689 17.4149 16.758 17.9838 16.7098 18.0215C16.6767 18.0475 15.6507 18.5265 14.4299 19.086C13.1155 19.6884 12.1674 20.1496 12.1051 20.2169L12 20.3305V23.293C12 25.4446 12.0149 26.2881 12.0543 26.3747C12.0894 26.4517 12.2125 26.5429 12.4019 26.6324C12.6691 26.7587 16.0492 28.3239 16.7343 28.6386C16.8933 28.7116 17.0629 28.785 17.1112 28.8015C17.1707 28.822 17.9603 28.4841 19.5549 27.7561C20.8506 27.1644 21.941 26.6804 21.9781 26.6804C22.0152 26.6804 23.0782 27.1567 24.3403 27.7388C25.7082 28.3697 26.6878 28.7957 26.7659 28.7935C26.8379 28.7915 26.9988 28.7381 27.1236 28.675C27.2484 28.6119 28.3598 28.1043 29.5935 27.5471C30.8271 26.9899 31.8733 26.491 31.9182 26.4385C31.9943 26.3497 32 26.1324 32 23.3393C32 20.5257 31.9947 20.3291 31.9166 20.2326C31.867 20.1713 30.9063 19.7061 29.5451 19.0841L27.257 18.0386L27.2336 15.2371L27.2103 12.4356L27.097 12.315C27.0347 12.2487 26.967 12.1944 26.9465 12.1944C26.9261 12.1944 25.828 11.7003 24.5064 11.0963C23.1031 10.455 22.0479 9.99893 21.97 10C21.8965 10.001 21.7734 10.0304 21.6963 10.0654ZM23.8646 11.746C24.8718 12.2062 25.6791 12.5989 25.6587 12.6187C25.619 12.6572 22.2957 14.1824 22.0857 14.2585C21.9767 14.298 21.7342 14.2003 20.1464 13.4778C19.1484 13.0236 18.3154 12.6367 18.2954 12.6181C18.2602 12.5854 21.9475 10.876 22.005 10.8984C22.0206 10.9044 22.8574 11.2859 23.8646 11.746ZM19.6043 14.1918L21.5312 15.0683L21.5319 17.4164C21.5324 18.7079 21.517 19.7647 21.4977 19.7649C21.4784 19.765 20.5957 19.3707 19.5362 18.8887L17.6098 18.0122L17.6086 15.6641C17.608 14.3726 17.6232 13.3158 17.6425 13.3157C17.6618 13.3155 18.5446 13.7098 19.6043 14.1918ZM26.3458 15.6712V18.0264L26.2173 18.0736C26.1466 18.0995 25.2632 18.4993 24.2543 18.9619L22.4197 19.8029L22.4318 17.4363L22.4439 15.0697L24.3598 14.1944C25.4136 13.713 26.2914 13.3185 26.3107 13.3176C26.33 13.3167 26.3458 14.3758 26.3458 15.6712ZM19.0943 19.6521C20.8377 20.4463 20.9243 20.4916 20.7996 20.5436C20.7273 20.5738 19.8829 20.9564 18.9231 21.3938L17.1779 22.1893L15.3398 21.3398C14.3288 20.8725 13.512 20.48 13.5245 20.4674C13.5946 20.3974 17.1286 18.79 17.1872 18.8015C17.226 18.8091 18.0842 19.1918 19.0943 19.6521ZM28.4586 19.5371C29.3655 19.9517 30.1987 20.332 30.3101 20.3822L30.5128 20.4735L28.7681 21.267C27.8085 21.7034 26.9577 22.0885 26.8774 22.1226C26.7357 22.1829 26.678 22.1603 24.938 21.3602C23.9517 20.9066 23.1416 20.5145 23.1379 20.4888C23.1322 20.4503 26.6699 18.7946 26.7763 18.7859C26.7947 18.7844 27.5517 19.1225 28.4586 19.5371ZM15.4579 22.3606L16.6963 22.9334L16.7084 25.3027C16.718 27.1922 16.7086 27.6675 16.6616 27.6494C16.6293 27.637 15.767 27.2409 14.7453 26.7693L12.8879 25.9117V23.5424V21.173L13.5537 21.4804C13.92 21.6494 14.7769 22.0455 15.4579 22.3606ZM21.5327 23.545V25.9236L21.4042 25.9708C21.3336 25.9967 20.4503 26.3964 19.4416 26.8589L17.6075 27.6998V25.3282V22.9566L19.5584 22.0652C20.6314 21.5749 21.5146 21.1721 21.521 21.17C21.5274 21.168 21.5327 22.2368 21.5327 23.545ZM25.0023 22.3559L26.2991 22.9528V25.3123C26.2991 27.5396 26.2945 27.67 26.2173 27.6418C26.1723 27.6254 25.2999 27.2289 24.2786 26.7607L22.4218 25.9094L22.4212 23.5405L22.4206 21.1716L23.0631 21.4653C23.4165 21.6268 24.2892 22.0276 25.0023 22.3559ZM31.1122 23.5386V25.9107L29.2313 26.761C28.1969 27.2287 27.3135 27.625 27.2683 27.6417C27.1904 27.6705 27.1867 27.5473 27.1982 25.3056L27.2103 22.9391L29.1495 22.056C30.2161 21.5703 31.094 21.1714 31.1005 21.1696C31.1069 21.1679 31.1122 22.2339 31.1122 23.5386Z" fill="#4278B8"/>
<defs>
<filter id="filter0_d_1_1610" x="0" y="0" width="52" height="52" filterUnits="userSpaceOnUse" color-interpolation-filters="sRGB">
<feFlood flood-opacity="0" result="BackgroundImageFix"/>
<feColorMatrix in="SourceAlpha" type="matrix" values="0 0 0 0 0 0 0 0 0 0 0 0 0 0 0 0 0 0 127 0" result="hardAlpha"/>
<feOffset dx="4" dy="6"/>
<feGaussianBlur stdDeviation="5"/>
<feComposite in2="hardAlpha" operator="out"/>
<feColorMatrix type="matrix" values="0 0 0 0 0 0 0 0 0 0 0 0 0 0 0 0 0 0 0.15 0"/>
<feBlend mode="normal" in2="BackgroundImageFix" result="effect1_dropShadow_1_1610"/>
<feBlend mode="normal" in="SourceGraphic" in2="effect1_dropShadow_1_1610" result="shape"/>
</filter>
</defs>
</svg>
