<svg width="24" height="24" viewBox="0 0 24 24" fill="none" xmlns="http://www.w3.org/2000/svg">
<path fill-rule="evenodd" clip-rule="evenodd" d="M5.4612 4.3672C5.11907 4.57579 5.10501 5.12927 5.43616 5.35372C5.5497 5.43067 5.73681 5.43292 11.9999 5.43292C18.2631 5.43292 18.4502 5.43067 18.5637 5.35372C18.8948 5.12927 18.8808 4.57579 18.5387 4.3672C18.4077 4.28733 18.2792 4.28571 11.9999 4.28571C5.72066 4.28571 5.59214 4.28733 5.4612 4.3672ZM6.19981 6.33164C5.67534 6.39686 5.24455 6.61702 4.88811 7.002C4.64446 7.26517 4.53885 7.44089 4.39043 7.83024C4.30347 8.05833 4.30201 8.11378 4.2897 11.5934C4.27922 14.5679 4.2869 15.1712 4.33835 15.418C4.49913 16.1891 4.99118 16.7623 5.74019 17.0511L6.01204 17.156L8.10221 17.178L10.1924 17.2001L8.96384 18.1598C8.28815 18.6876 7.67146 19.19 7.59347 19.2761C7.37281 19.5197 7.40528 19.843 7.6758 20.0957C7.81412 20.2249 8.13659 20.2625 8.31055 20.1697C8.37749 20.134 9.23899 19.4763 10.225 18.7081L12.0177 17.3114L12.2697 17.5105C13.7447 18.6766 15.6383 20.1239 15.7517 20.1718C16.2298 20.3741 16.7266 19.815 16.4847 19.3471C16.4459 19.2723 15.9069 18.8254 15.1061 18.2045L13.7911 17.1847L15.8895 17.1705L17.9878 17.1563L18.2597 17.0513C19.0091 16.7619 19.5008 16.189 19.6615 15.418C19.713 15.1712 19.7206 14.5679 19.7102 11.5934L19.6977 8.06175L19.6041 7.81472C19.3384 7.11349 18.8514 6.63108 18.1786 6.40262L17.9044 6.30949L12.1877 6.30369C9.04354 6.30052 6.34899 6.31308 6.19981 6.33164ZM17.9478 7.5972C18.1727 7.70193 18.3619 7.89488 18.4532 8.11257C18.4989 8.22165 18.5092 8.90251 18.5085 11.7429C18.5076 15.05 18.5034 15.2479 18.4307 15.4058C18.3248 15.6356 18.169 15.7906 17.9354 15.8986L17.7375 15.99H11.9999H6.2624L6.06449 15.8986C5.83086 15.7906 5.67505 15.6356 5.56914 15.4058C5.49641 15.2479 5.49224 15.05 5.49136 11.7429C5.49061 8.90251 5.501 8.22165 5.5467 8.11257C5.63795 7.89488 5.82715 7.70193 6.05206 7.5972L6.2624 7.49926H11.9999H17.7375L17.9478 7.5972ZM13.597 8.58121C13.3983 8.62978 13.2727 8.72605 13.1954 8.88904C13.104 9.08157 13.1087 9.2837 13.2082 9.44693C13.3714 9.71461 13.4268 9.72868 14.4084 9.75171L15.2977 9.77257L14.6733 10.3959L14.0488 11.0191L13.7001 10.6844C13.4567 10.4506 13.3089 10.3411 13.2106 10.3214C12.8904 10.2574 12.8723 10.2712 11.5978 11.5503L10.3957 12.7568L10.018 12.3807C9.6034 11.9678 9.4682 11.8993 9.1908 11.9616C9.04654 11.994 8.89007 12.1316 8.08836 12.9306C7.57444 13.4428 7.12708 13.9126 7.09416 13.9745C7.01037 14.1325 7.02001 14.3803 7.11615 14.5379C7.27672 14.8013 7.65685 14.888 7.92236 14.7219C7.99626 14.6757 8.34707 14.3463 8.70196 13.9901L9.34727 13.3422L9.74974 13.7376C10.1611 14.1418 10.1944 14.1594 10.4977 14.1334C10.5551 14.1285 10.649 14.0995 10.7064 14.0689C10.7638 14.0384 11.3169 13.5058 11.9357 12.8854L13.0607 11.7573L13.3769 12.0649C13.6079 12.2898 13.7402 12.3853 13.8687 12.4199C14.2077 12.5111 14.2721 12.468 15.2338 11.5046L16.1101 10.6269L16.1309 11.4933C16.1504 12.3006 16.1582 12.37 16.2461 12.5112C16.4825 12.8915 17.0804 12.8547 17.2733 12.4481C17.3323 12.3238 17.341 12.0905 17.3409 10.6425C17.3408 9.06696 17.3365 8.97274 17.2593 8.84618C17.0876 8.56461 17.0787 8.56327 15.3173 8.55538C14.4452 8.5515 13.6711 8.5631 13.597 8.58121Z" fill="#4278B8"/>
</svg>
