<svg width="14" height="10" viewBox="0 0 14 10" fill="none" xmlns="http://www.w3.org/2000/svg">
<path fill-rule="evenodd" clip-rule="evenodd" d="M1.47227 0.733544C1.02773 0.809997 0.684105 1.15114 0.597694 1.60189C0.574192 1.72455 0.567534 2.62047 0.573708 4.83034L0.582272 7.88901L0.64871 8.0536C0.741807 8.28427 0.973184 8.52677 1.20021 8.63159C1.36839 8.70927 1.40632 8.71496 1.84293 8.72836L2.30691 8.74259L2.3693 8.92753C2.44041 9.13825 2.55268 9.34035 2.67787 9.48295C2.80329 9.62576 3.11539 9.82316 3.32796 9.89412C3.57994 9.9782 3.97902 9.97983 4.23845 9.8978C4.70541 9.75018 5.12088 9.31921 5.23552 8.86351L5.26949 8.72836H7.33979H9.4101L9.44407 8.86351C9.52499 9.18514 9.78397 9.53605 10.0834 9.72975C10.3305 9.8896 10.5703 9.95632 10.8964 9.95604C11.2275 9.95578 11.4526 9.88812 11.7262 9.70662C12.0221 9.51033 12.1885 9.28834 12.3103 8.92753L12.3728 8.74259L12.9007 8.73485L13.4287 8.72711L13.4284 7.02768C13.4283 5.99454 13.4167 5.25718 13.3988 5.14696C13.3552 4.87774 13.2725 4.69943 12.8548 3.97294C12.3554 3.10445 12.2065 2.94142 11.7619 2.77639C11.5988 2.71582 11.5505 2.71351 10.2227 2.70298L8.85186 2.69209L8.84272 2.10386C8.83385 1.53469 8.83109 1.5103 8.75731 1.3529C8.64557 1.11453 8.45966 0.930408 8.2148 0.81563L8.00843 0.718919L4.8075 0.71468C3.04699 0.712347 1.54614 0.720854 1.47227 0.733544ZM8.01964 1.31643C8.07276 1.34772 8.15599 1.42253 8.20459 1.48268L8.29296 1.59199L8.30041 4.88989L8.3079 8.18776H6.78642H5.26494L5.2325 8.06732C5.08398 7.51576 4.59852 7.08334 4.02505 6.99183C3.53475 6.91359 2.99592 7.10274 2.67702 7.465C2.54406 7.61609 2.37286 7.93427 2.3456 8.08106L2.32577 8.18776H1.92086C1.552 8.18776 1.5048 8.18187 1.39093 8.12166C1.29729 8.07213 1.24613 8.01761 1.18692 7.90428L1.10791 7.75303L1.11539 4.68913L1.12287 1.62522L1.20101 1.5072C1.28027 1.38739 1.39517 1.30977 1.54966 1.27158C1.59661 1.26 3.04983 1.25255 4.77905 1.25503C7.86773 1.25944 7.92478 1.26052 8.01964 1.31643ZM4.5372 2.12924C3.77481 2.20722 3.11382 2.66304 2.78639 3.33657C2.61511 3.68887 2.5502 4.00578 2.56787 4.40355C2.59223 4.95135 2.7776 5.40155 3.13755 5.78698C3.59368 6.27542 4.08881 6.49175 4.7506 6.49175C5.40316 6.49175 5.90159 6.27756 6.34648 5.80592C6.58671 5.5513 6.71725 5.33404 6.83109 4.99952C6.95636 4.63142 6.97847 4.16409 6.88765 3.80487C6.72169 3.14855 6.32076 2.64315 5.73221 2.34829C5.49398 2.22893 5.27811 2.16358 5.04827 2.14116C4.95497 2.13205 4.84662 2.12107 4.8075 2.11674C4.76838 2.11239 4.64674 2.11802 4.5372 2.12924ZM5.13471 2.70111C5.70072 2.81887 6.20342 3.31927 6.359 3.91985C6.42322 4.16776 6.40316 4.60263 6.31604 4.85091C6.11442 5.42537 5.57843 5.86536 4.98533 5.94321C4.39525 6.02069 3.81092 5.7913 3.45978 5.34436C2.94632 4.69081 2.97885 3.79343 3.53783 3.19046C3.956 2.73943 4.5071 2.57054 5.13471 2.70111ZM4.60193 3.25289C4.55928 3.27602 4.51128 3.3195 4.49523 3.34946C4.47833 3.38104 4.46607 3.62514 4.46607 3.93004C4.46607 4.45445 4.4663 4.45636 4.53973 4.54362L4.6134 4.63117H5.0778H5.54221L5.61587 4.54362C5.71304 4.42816 5.71386 4.29338 5.61801 4.19752C5.53487 4.11435 5.43918 4.09057 5.18806 4.09057H5.00667V3.76194C5.00667 3.38579 4.97458 3.28957 4.83257 3.24006C4.71819 3.2002 4.69685 3.20139 4.60193 3.25289ZM11.6788 3.33344C11.8853 3.43132 11.9925 3.56354 12.3041 4.10479C12.4573 4.37083 12.6076 4.63009 12.6381 4.68096L12.6935 4.77343H10.7707H8.84779V4.01943V3.26544L10.1922 3.26572L11.5366 3.26601L11.6788 3.33344ZM12.8881 6.7509V8.18776H12.6209H12.3538L12.334 8.08106C12.3067 7.93427 12.1355 7.61609 12.0026 7.465C11.6837 7.10274 11.1448 6.91359 10.6545 6.99183C10.0811 7.08334 9.59561 7.51576 9.44709 8.06732L9.41465 8.18776H9.13121H8.84779V6.7509V5.31403H10.8679H12.8881V6.7509ZM4.01706 7.54407C4.46502 7.64949 4.78036 8.08482 4.74328 8.54666C4.70877 8.97658 4.36799 9.34152 3.93523 9.41194C3.62751 9.46204 3.27424 9.33876 3.08204 9.11424C2.74089 8.71567 2.74232 8.21815 3.08577 7.82385C3.24235 7.64408 3.52041 7.51832 3.7832 7.50845C3.82233 7.507 3.92757 7.52302 4.01706 7.54407ZM11.2998 7.60903C11.4988 7.69834 11.6679 7.87435 11.7734 8.10203C11.8768 8.3253 11.8738 8.6222 11.7657 8.85056C11.5925 9.21664 11.2799 9.41629 10.8785 9.41712C10.2343 9.41845 9.75847 8.75095 9.98282 8.1605C10.1012 7.84886 10.3802 7.59509 10.6713 7.53411C10.8615 7.49428 11.1101 7.5239 11.2998 7.60903Z" fill="#4278B8"/>
</svg>
