<svg width="12" height="10" viewBox="0 0 12 10" fill="none"
    xmlns="http://www.w3.org/2000/svg">
    <path d="M12 2.27633V5.89791C12 6.0446 11.9417 6.18529 11.838 6.28902C11.7343 6.39275 11.5936 6.45103 11.4469 6.45103C11.3002 6.45103 11.1595 6.39275 11.0558 6.28902C10.952 6.18529 10.8938 6.0446 10.8938 5.89791V3.64599L7.1099 7.42927C7.05882 7.48103 6.99796 7.52213 6.93087 7.55018C6.86378 7.57824 6.79178 7.59268 6.71906 7.59268C6.64634 7.59268 6.57434 7.57824 6.50724 7.55018C6.44015 7.52213 6.3793 7.48103 6.32822 7.42927L4.66257 5.76191L0.914709 9.50977C0.808844 9.60122 0.672257 9.64916 0.532457 9.64393C0.392658 9.63871 0.260031 9.5807 0.16129 9.4816C0.0625494 9.3825 0.00502916 9.24966 0.000314484 9.10984C-0.0044002 8.97002 0.044041 8.83361 0.135882 8.72808L4.27172 4.58938C4.37767 4.48991 4.51753 4.43454 4.66285 4.43454C4.80817 4.43454 4.94804 4.48991 5.05398 4.58938L6.7202 6.25675L10.1486 2.82831H7.81273C7.73864 2.83069 7.66482 2.81815 7.59566 2.79144C7.52651 2.76473 7.46343 2.72439 7.41017 2.67282C7.35692 2.62125 7.31457 2.5595 7.28565 2.49124C7.25673 2.42298 7.24183 2.34961 7.24183 2.27547C7.24183 2.20134 7.25673 2.12796 7.28565 2.0597C7.31457 1.99144 7.35692 1.92969 7.41017 1.87812C7.46343 1.82655 7.52651 1.78621 7.59566 1.7595C7.66482 1.73279 7.73864 1.72025 7.81273 1.72264H11.4457C11.5185 1.72241 11.5907 1.73657 11.658 1.76431C11.7253 1.79205 11.7865 1.83282 11.838 1.88427C11.8895 1.93572 11.9303 1.99685 11.9581 2.06413C11.9859 2.13141 12.0001 2.20353 12 2.27633Z" fill="#ed3237"/>
    <rect x="0.57666" y="1.71466" width="4.57125" height="1.14281" rx="0.571407" fill="#ed3237"/>
</svg>
