<svg width="40" height="40" viewBox="0 0 40 40" fill="none" xmlns="http://www.w3.org/2000/svg">
<circle cx="20" cy="20" r="20" fill="#4278B8"/>
<path d="M20 28C19.7524 28 19.5476 27.919 19.3857 27.7571C19.2238 27.5952 19.1429 27.3905 19.1429 27.1429V20.8571H12.8571C12.6095 20.8571 12.4048 20.7762 12.2429 20.6143C12.081 20.4524 12 20.2476 12 20C12 19.7524 12.081 19.5476 12.2429 19.3857C12.4048 19.2238 12.6095 19.1429 12.8571 19.1429H19.1429V12.8571C19.1429 12.6095 19.2238 12.4048 19.3857 12.2429C19.5476 12.081 19.7524 12 20 12C20.2476 12 20.4524 12.081 20.6143 12.2429C20.7762 12.4048 20.8571 12.6095 20.8571 12.8571V19.1429H27.1429C27.3905 19.1429 27.5952 19.2238 27.7571 19.3857C27.919 19.5476 28 19.7524 28 20C28 20.2476 27.919 20.4524 27.7571 20.6143C27.5952 20.7762 27.3905 20.8571 27.1429 20.8571H20.8571V27.1429C20.8571 27.3905 20.7762 27.5952 20.6143 27.7571C20.4524 27.919 20.2476 28 20 28Z" fill="white"/>
</svg>
