<svg width="52" height="52" viewBox="0 0 52 52" fill="none" xmlns="http://www.w3.org/2000/svg">
<g filter="url(#filter0_d_1_1604)">
<circle cx="22" cy="20" r="16" fill="white"/>
</g>
<path fill-rule="evenodd" clip-rule="evenodd" d="M26.3498 13.0459C26.1035 13.1077 25.913 13.192 25.709 13.3295C25.6144 13.3932 24.9751 14.0346 24.2884 14.7548C23.6018 15.475 23.022 16.0575 23.0001 16.0492C22.9536 16.0317 16.3875 14.0739 16.0853 13.9874C15.905 13.9359 15.8666 13.9351 15.7607 13.9808C15.6932 14.01 15.2813 14.3947 14.8203 14.8591C14.0241 15.6611 14 15.6896 14 15.8302C14 15.9415 14.0229 15.9964 14.0992 16.0679C14.1537 16.1191 15.4315 16.9105 16.9387 17.8266C18.4459 18.7427 19.693 19.5059 19.7101 19.5226C19.7271 19.5392 18.9699 20.4437 18.0275 21.5325L16.3141 23.5121L15.3103 23.9417C14.2338 24.4023 14.1082 24.4802 14.1082 24.6869C14.1082 24.7957 14.2397 24.9377 15.6322 26.3317C16.957 27.6581 17.1731 27.8603 17.2859 27.8785C17.5143 27.9156 17.5823 27.8112 18.0601 26.6902L18.4878 25.6869L20.4865 23.9576C21.5857 23.0064 22.4883 22.2324 22.4923 22.2375C22.4962 22.2425 23.2501 23.4966 24.1677 25.0242C25.0853 26.5518 25.8829 27.8462 25.9402 27.9008C26.0155 27.9725 26.0815 28 26.1782 28C26.3049 28 26.3588 27.9533 27.1873 27.1245C27.8715 26.44 28.0625 26.2289 28.0625 26.1571C28.0625 26.1067 27.5918 24.4599 27.0164 22.4977L25.9703 18.93L26.124 18.7816C26.2085 18.6999 26.7848 18.1496 27.4046 17.5586C28.12 16.8764 28.5839 16.4056 28.6751 16.269C28.8857 15.9535 29 15.5585 29 15.1464C29 14.5253 28.8159 14.0733 28.3873 13.6418C28.0815 13.3341 27.7448 13.1375 27.3737 13.05C27.0984 12.9851 26.6001 12.9831 26.3498 13.0459ZM27.5068 13.8237C28.0683 14.0985 28.4056 14.742 28.3091 15.3539C28.239 15.7981 28.1828 15.8676 26.9087 17.0847C25.15 18.7648 25.2497 18.6612 25.2516 18.8047C25.2524 18.8726 25.7213 20.5189 26.2934 22.4631L27.3337 25.9981L26.7885 26.5477C26.3641 26.9756 26.2341 27.0875 26.2015 27.0527C26.1786 27.0281 25.4178 25.7744 24.511 24.2667C23.6042 22.7589 22.8375 21.4972 22.8072 21.4629C22.7259 21.3707 22.5376 21.3463 22.4148 21.4121C22.3579 21.4426 21.323 22.3246 20.1152 23.3721L17.9191 25.2766L17.5656 26.1018C17.3712 26.5556 17.2066 26.9324 17.2 26.939C17.1933 26.9457 16.7044 26.4673 16.1134 25.8759L15.039 24.8007L15.8807 24.44L16.7224 24.0794L18.6414 21.8645C19.6969 20.6463 20.575 19.6085 20.5929 19.5583C20.6136 19.5001 20.6107 19.4221 20.5849 19.3431C20.5473 19.2279 20.3468 19.0986 17.75 17.5152C16.213 16.5781 14.9393 15.8043 14.9195 15.7956C14.8996 15.7869 15.1349 15.5289 15.4423 15.2222L16.0012 14.6646L19.5349 15.7225C21.4784 16.3044 23.1061 16.7808 23.152 16.7812C23.1979 16.7816 23.2645 16.7665 23.2999 16.7475C23.3353 16.7285 23.9587 16.0898 24.6852 15.328C25.7873 14.1725 26.0418 13.924 26.2211 13.8284C26.6039 13.6243 27.0956 13.6225 27.5068 13.8237Z" fill="#4278B8"/>
<defs>
<filter id="filter0_d_1_1604" x="0" y="0" width="52" height="52" filterUnits="userSpaceOnUse" color-interpolation-filters="sRGB">
<feFlood flood-opacity="0" result="BackgroundImageFix"/>
<feColorMatrix in="SourceAlpha" type="matrix" values="0 0 0 0 0 0 0 0 0 0 0 0 0 0 0 0 0 0 127 0" result="hardAlpha"/>
<feOffset dx="4" dy="6"/>
<feGaussianBlur stdDeviation="5"/>
<feComposite in2="hardAlpha" operator="out"/>
<feColorMatrix type="matrix" values="0 0 0 0 0 0 0 0 0 0 0 0 0 0 0 0 0 0 0.15 0"/>
<feBlend mode="normal" in2="BackgroundImageFix" result="effect1_dropShadow_1_1604"/>
<feBlend mode="normal" in="SourceGraphic" in2="effect1_dropShadow_1_1604" result="shape"/>
</filter>
</defs>
</svg>
