<svg width="41" height="20" viewBox="0 0 41 20" fill="none" xmlns="http://www.w3.org/2000/svg">
<path d="M0 2C0 0.895431 0.895431 0 2 0H7C8.10457 0 9 0.895431 9 2V20H0V2Z" fill="url(#paint0_linear_1_412)"/>
<path d="M11 6.2461C11 5.14153 11.8954 4.24609 13 4.24609H18C19.1046 4.24609 20 5.14152 20 6.24609V20.0003H11V6.2461Z" fill="url(#paint1_linear_1_412)"/>
<path d="M22 15.4082C22 14.3036 22.8954 13.4082 24 13.4082H29C30.1046 13.4082 31 14.3036 31 15.4082V20.0004H22V15.4082Z" fill="url(#paint2_linear_1_412)"/>
<path d="M33 20C33 18.8954 33.8954 18 35 18H39C40.1046 18 41 18.8954 41 20H33Z" fill="url(#paint3_linear_1_412)"/>
<defs>
<linearGradient id="paint0_linear_1_412" x1="6.20931e-07" y1="13.5" x2="18.5" y2="13.5" gradientUnits="userSpaceOnUse">
<stop stop-color="#CE0C14"/>
<stop offset="1" stop-color="#ED565C"/>
</linearGradient>
<linearGradient id="paint1_linear_1_412" x1="11" y1="14.8802" x2="29.5" y2="14.8802" gradientUnits="userSpaceOnUse">
<stop stop-color="#F9464E"/>
<stop offset="1" stop-color="#FE868B"/>
</linearGradient>
<linearGradient id="paint2_linear_1_412" x1="22" y1="17.8579" x2="40.5" y2="17.8579" gradientUnits="userSpaceOnUse">
<stop stop-color="#FF6D74"/>
<stop offset="1" stop-color="#FE868B"/>
</linearGradient>
<linearGradient id="paint3_linear_1_412" x1="33" y1="19.35" x2="49.4444" y2="19.35" gradientUnits="userSpaceOnUse">
<stop stop-color="#FE868B"/>
<stop offset="1" stop-color="#FFF0F1"/>
</linearGradient>
</defs>
</svg>
