<svg width="24" height="24" viewBox="0 0 24 24" fill="none" xmlns="http://www.w3.org/2000/svg">
<path fill-rule="evenodd" clip-rule="evenodd" d="M12.8691 3C13.6493 3 14.2992 3.59799 14.364 4.37543L14.4748 5.70235C15.1102 5.94815 15.6991 6.28736 16.2247 6.70314L17.4201 6.1399C18.1258 5.80728 18.9686 6.07112 19.3587 6.74673L20.2285 8.25327C20.6185 8.92888 20.4256 9.79071 19.7847 10.2355L18.7136 10.9794C18.7641 11.3122 18.7903 11.6531 18.7903 12C18.7903 12.3469 18.7641 12.6878 18.7136 13.0206L19.7847 13.7645C20.4256 14.2093 20.6185 15.0711 20.2285 15.7467L19.3587 17.2533C18.9686 17.9289 18.1258 18.1927 17.4201 17.8601L16.2247 17.2969C15.6993 17.7125 15.1107 18.0516 14.4755 18.2974L14.364 19.6246C14.2992 20.402 13.6493 21 12.8691 21H11.1295C10.3494 21 9.6995 20.402 9.63471 19.6246L9.52106 18.2642C8.90595 18.0166 8.33572 17.681 7.82593 17.273L6.57857 17.8601C5.8729 18.1927 5.03007 17.9289 4.64 17.2533L3.7702 15.7467C3.38014 15.0711 3.57307 14.2093 4.21395 13.7645L5.3593 12.9688C5.31383 12.6524 5.2903 12.329 5.2903 12C5.2903 11.6708 5.31387 11.3471 5.35941 11.0304L4.21395 10.2355C3.57307 9.79071 3.38014 8.92888 3.7702 8.25327L4.64 6.74673C5.03007 6.07112 5.8729 5.80728 6.57857 6.1399L7.82593 6.72696C8.33572 6.31899 8.90595 5.98341 9.52106 5.73581L9.63471 4.37543C9.6995 3.59799 10.3494 3 11.1295 3H12.8691Z" stroke="#4278B8" stroke-width="2"/>
<circle cx="12.0403" cy="12" r="3" stroke="#4278B8" stroke-width="2"/>
</svg>
