<svg width="75" height="27" viewBox="0 0 75 27" fill="none" xmlns="http://www.w3.org/2000/svg">
<path d="M15.3456 14.4194C14.6937 13.9662 13.9505 13.6557 13.1662 13.5088L10.9688 12.9897C10.3966 12.8812 9.83939 12.707 9.30852 12.4707C9.1194 12.3791 8.96129 12.2357 8.85329 12.0577C8.74529 11.8797 8.69201 11.6748 8.69989 11.4677C8.69447 11.2422 8.74798 11.019 8.85532 10.8195C8.96266 10.6201 9.12023 10.451 9.313 10.3284C9.808 10.0333 10.3817 9.89082 10.9599 9.91936C11.4938 9.90266 12.0242 10.0096 12.5083 10.2317C12.8101 10.3832 13.0634 10.6138 13.2402 10.8979C13.4171 11.182 13.5107 11.5086 13.5107 11.8416H16.075C16.0852 11.2548 15.9552 10.6737 15.6956 10.1451C15.4361 9.61646 15.0541 9.15498 14.5803 8.79766C13.5844 8.08004 12.3732 7.71001 11.1389 7.74634C9.53228 7.74634 8.31055 8.11584 7.48264 8.85924C7.07965 9.20793 6.75909 9.63901 6.54341 10.1223C6.32773 10.6055 6.22215 11.1293 6.23405 11.6569C6.23405 12.8886 6.66367 13.7933 7.52291 14.371C8.38291 14.8457 9.3202 15.1702 10.2931 15.3299L11.6356 15.6246C12.2431 15.7326 12.8302 15.9314 13.3765 16.2141C13.5437 16.3095 13.6821 16.447 13.7773 16.6125C13.8725 16.7779 13.921 16.9654 13.918 17.1554C13.9284 17.4865 13.8237 17.8112 13.6212 18.0759C13.4186 18.3406 13.1302 18.5295 12.8037 18.6114C12.3083 18.7614 11.7912 18.8298 11.2731 18.8138C10.2215 18.8138 9.48305 18.5587 9.03553 18.0396C8.75974 17.6624 8.59415 17.2182 8.55669 16.7551H6.0282C6.00055 17.3429 6.1156 17.9287 6.36383 18.4641C6.61207 18.9995 6.98636 19.4692 7.45579 19.8343C8.40751 20.5821 9.71427 20.956 11.3761 20.956C13.0006 20.956 14.2626 20.5777 15.1531 19.8167C15.5811 19.4719 15.9242 19.0363 16.1567 18.5427C16.3892 18.0491 16.5051 17.5102 16.4957 16.9663C16.5212 16.4828 16.4304 16.0001 16.2305 15.5576C16.0307 15.1151 15.7275 14.7251 15.3456 14.4194Z" fill="#393D40"/>
<path d="M20.6665 8.10706H17.9724V20.7009H20.6665V8.10706Z" fill="#393D40"/>
<path d="M32.7585 9.96776C32.2312 9.21931 31.4688 8.66148 30.588 8.37978C29.9475 8.19337 29.2824 8.10145 28.6144 8.10705H23.1189V20.6437H28.6144C29.4786 20.6877 30.3378 20.4915 31.0937 20.0776C31.8496 19.6637 32.4715 19.0489 32.8883 18.3035C33.6038 17.0083 33.9559 15.5494 33.9086 14.0763C33.9041 13.3777 33.8231 12.6816 33.667 12C33.5048 11.2699 33.1959 10.579 32.7585 9.96776ZM31.2145 14.4106C31.1877 16.0777 30.6999 17.5425 29.5229 18.1628C29.0225 18.4037 28.4685 18.5171 27.9118 18.4927H25.8085V10.3197C25.8085 10.3197 28.0998 10.3197 28.2072 10.3197C28.7951 10.288 29.3817 10.403 29.9123 10.654C31.0445 11.305 31.2056 12.7918 31.2145 14.4062C31.219 14.3534 31.219 14.459 31.2145 14.4106Z" fill="#393D40"/>
<path d="M35.7883 8.10706V10.3197V13.2977V15.5103V18.4883V20.7009H38.4824H44.5821V18.4883H38.4824V15.5103H44.5821V13.2977H38.4824V10.3197H44.5821V8.10706H38.4824H35.7883Z" fill="#393D40"/>
<path d="M68.9719 11.8065C68.966 10.8241 68.5651 9.88382 67.8567 9.19079C67.1483 8.49777 66.1898 8.1082 65.1904 8.10706H59.5203V20.7009H62.2054V16.0821H65.1904C66.1898 16.081 67.1483 15.6914 67.8567 14.9984C68.5651 14.3054 68.966 13.3651 68.9719 12.3827V11.8065ZM66.5374 12.3959C66.5374 12.7867 66.3794 13.1616 66.0983 13.4379C65.8171 13.7143 65.4358 13.8695 65.0382 13.8695H62.2054V10.3197H65.0382C65.4358 10.3197 65.8171 10.4749 66.0983 10.7513C66.3794 11.0276 66.5374 11.4024 66.5374 11.7933V12.3959Z" fill="#393D40"/>
<path d="M54.1276 6.03076H56.8127V8.09381C56.8127 8.24897 56.75 8.39778 56.6384 8.5075C56.5268 8.61722 56.3754 8.67886 56.2175 8.67886H54.1187V6.03956L54.1276 6.03076Z" fill="#DC4097"/>
<path d="M46.5825 16.5132C46.5825 17.0635 46.6929 17.6084 46.9073 18.1168C47.1216 18.6251 47.4359 19.087 47.8319 19.4759C48.228 19.8648 48.6982 20.1732 49.2156 20.3834C49.733 20.5936 50.2875 20.7015 50.8474 20.7009H56.8352V10.6848H54.1501V18.4751H51.6932C51.4484 18.4768 51.2041 18.4547 50.9637 18.4091C50.6577 18.3299 50.3722 18.1878 50.1261 17.9922C49.88 17.7966 49.6789 17.5519 49.5362 17.2742C49.3547 16.7176 49.2744 16.1339 49.299 15.5499V8.10706H46.6138L46.5825 16.5132Z" fill="#393D40"/>
</svg>
