<svg width="14" height="14" viewBox="0 0 14 14" fill="none" xmlns="http://www.w3.org/2000/svg">
<path d="M11.2984 5.65601V1.20852C11.2981 0.935447 11.1918 0.673669 11.0029 0.480579C10.8141 0.287489 10.558 0.178844 10.2909 0.178467H1.18204C0.914956 0.178844 0.658914 0.287489 0.470054 0.480579C0.281194 0.673669 0.17493 0.935447 0.174561 1.20852L0.174561 10.5214C0.17493 10.7945 0.281194 11.0563 0.470054 11.2494C0.658914 11.4425 0.914956 11.5511 1.18204 11.5515H7.04681C7.39494 12.0365 7.84977 12.4311 8.37455 12.7032C8.89934 12.9754 9.47937 13.1176 10.0678 13.1183C10.6563 13.1189 11.2366 12.9781 11.762 12.7072C12.2874 12.4362 12.7431 12.0428 13.0923 11.5585C13.4415 11.0743 13.6744 10.5129 13.7723 9.91964C13.8701 9.32639 13.8301 8.71794 13.6555 8.14341C13.4809 7.56888 13.1766 7.04439 12.7671 6.6123C12.3577 6.18021 11.8546 5.85263 11.2984 5.65601ZM4.74768 1.01721H6.7267V3.33179L5.88887 2.98987C5.79114 2.95002 5.68219 2.95002 5.58446 2.98987L4.74664 3.33179L4.74768 1.01721ZM1.18204 10.7131C1.13233 10.7131 1.08464 10.6929 1.04949 10.657C1.01433 10.621 0.994581 10.5723 0.994581 10.5214V1.20852C0.994581 1.15769 1.01433 1.10894 1.04949 1.07299C1.08464 1.03705 1.13233 1.01686 1.18204 1.01686H3.92662V3.95068C3.92662 4.0192 3.94305 4.08667 3.97446 4.14719C4.00587 4.20772 4.05131 4.25946 4.1068 4.29788C4.16229 4.3363 4.22614 4.36023 4.29277 4.36759C4.3594 4.37494 4.42677 4.36549 4.48901 4.34007L5.73632 3.8304L6.98363 4.34007C7.04586 4.36549 7.11324 4.37494 7.17987 4.36759C7.2465 4.36023 7.31035 4.3363 7.36584 4.29788C7.42133 4.25946 7.46676 4.20772 7.49817 4.14719C7.52958 4.08667 7.54601 4.0192 7.54602 3.95068V1.01721H10.2906C10.3403 1.01721 10.388 1.0374 10.4231 1.07335C10.4583 1.10929 10.4781 1.15804 10.4781 1.20887V5.46827C9.83373 5.39681 9.18228 5.49715 8.58715 5.75953C7.99202 6.02191 7.47348 6.43739 7.08204 6.9655C6.6906 7.49362 6.43959 8.11637 6.35346 8.77311C6.26733 9.42986 6.34901 10.0982 6.59055 10.7131H1.18204ZM10.0731 12.2835C9.49313 12.2835 8.92619 12.1077 8.44396 11.7783C7.96173 11.4488 7.58588 10.9806 7.36393 10.4328C7.14199 9.88494 7.08392 9.28213 7.19707 8.70056C7.31021 8.11899 7.58949 7.58479 7.9996 7.1655C8.4097 6.74621 8.9322 6.46067 9.50103 6.34499C10.0699 6.22931 10.6595 6.28868 11.1953 6.5156C11.7311 6.74252 12.1891 7.12679 12.5113 7.61982C12.8335 8.11285 13.0055 8.69249 13.0055 9.28545C13.004 10.0799 12.6946 10.8414 12.145 11.403C11.5954 11.9646 10.8505 12.2806 10.0735 12.2817L10.0731 12.2835Z" fill="#4278B8"/>
<path d="M10.0734 13.2989C9.44654 13.2987 8.82879 13.1451 8.27177 12.851C7.76045 12.579 7.31316 12.1964 6.96092 11.7299H1.18203C0.86865 11.7296 0.568211 11.6021 0.346617 11.3756C0.125023 11.149 0.000369553 10.8418 0 10.5214V1.20851C0.000369553 0.888107 0.125023 0.580938 0.346617 0.354381C0.568211 0.127824 0.86865 0.000377831 1.18203 0L10.2909 0C10.6043 0.000377831 10.9047 0.127824 11.1263 0.354381C11.3479 0.580938 11.4726 0.888107 11.473 1.20851V5.53215C12.3307 5.86694 13.0466 6.49834 13.4964 7.31667C13.9462 8.13501 14.1013 9.08857 13.935 10.0117C13.7686 10.9349 13.2912 11.7692 12.5857 12.37C11.8802 12.9707 10.9912 13.2997 10.0731 13.3L10.0734 13.2989ZM1.18203 0.356913C0.961207 0.357196 0.749507 0.447008 0.593361 0.606652C0.437215 0.766295 0.349371 0.982737 0.349093 1.20851V10.5214C0.349371 10.7472 0.437215 10.9636 0.593361 11.1233C0.749507 11.2829 0.961207 11.3727 1.18203 11.373H7.13652L7.18888 11.4444C7.5168 11.8995 7.94228 12.2717 8.4327 12.5326C8.9393 12.8023 9.50231 12.9423 10.0734 12.9406C10.9191 12.9393 11.7369 12.6319 12.3821 12.0729C13.0272 11.5139 13.4578 10.7394 13.5977 9.88677C13.7376 9.0341 13.5776 8.15833 13.1462 7.41474C12.7148 6.67114 12.0398 6.10776 11.2408 5.82446L11.1235 5.78306V1.20851C11.1232 0.982799 11.0354 0.766411 10.8794 0.606778C10.7233 0.447144 10.5117 0.357291 10.2909 0.356913H1.18203ZM10.0734 12.4602C9.45895 12.4602 8.85825 12.2739 8.34732 11.9248C7.83639 11.5758 7.43817 11.0797 7.20301 10.4993C6.96785 9.91883 6.90633 9.28014 7.02621 8.66395C7.14609 8.04776 7.442 7.48176 7.87651 7.03752C8.31102 6.59327 8.86462 6.29074 9.46731 6.16817C10.07 6.0456 10.6947 6.10851 11.2624 6.34893C11.8301 6.58936 12.3154 6.9965 12.6568 7.51888C12.9982 8.04125 13.1804 8.6554 13.1804 9.28366C13.1793 10.1258 12.8516 10.9331 12.2691 11.5285C11.6867 12.124 10.8971 12.4591 10.0734 12.4602ZM10.0734 6.46405C9.52799 6.46405 8.99479 6.62942 8.54127 6.93924C8.08774 7.24906 7.73426 7.68942 7.52553 8.20464C7.3168 8.71986 7.26218 9.28679 7.36859 9.83374C7.47501 10.3807 7.73766 10.8831 8.12335 11.2774C8.50905 11.6718 9.00045 11.9403 9.53541 12.0491C10.0704 12.1579 10.6249 12.102 11.1288 11.8886C11.6327 11.6752 12.0635 11.3138 12.3665 10.8502C12.6695 10.3865 12.8313 9.84133 12.8313 9.28366C12.8305 8.53598 12.5398 7.81913 12.0228 7.29035C11.5058 6.76156 10.8047 6.46402 10.0734 6.46298V6.46405ZM6.84886 10.8916H1.18203C1.08611 10.8914 0.994173 10.8523 0.926378 10.7829C0.858584 10.7135 0.820462 10.6195 0.82037 10.5214V1.20851C0.820554 1.1105 0.858717 1.01656 0.926502 0.947254C0.994286 0.877951 1.08617 0.838934 1.18203 0.838745H4.10115V3.95102C4.10115 3.99037 4.11058 4.02912 4.12861 4.06389C4.14663 4.09865 4.17272 4.12837 4.20458 4.15045C4.23643 4.17252 4.27309 4.18629 4.31135 4.19054C4.34962 4.19478 4.38831 4.18938 4.42406 4.17481L5.7363 3.63944L7.04855 4.17481C7.08434 4.1892 7.12301 4.19451 7.16126 4.19028C7.1995 4.18605 7.23617 4.17242 7.26813 4.15054C7.30021 4.12866 7.32654 4.09905 7.3448 4.06433C7.36307 4.0296 7.3727 3.99081 7.37285 3.95138V0.838745H10.292C10.388 0.83884 10.48 0.877864 10.5479 0.947255C10.6157 1.01664 10.6539 1.11073 10.654 1.20886V5.66706L10.4606 5.64565C9.9608 5.58984 9.45512 5.64232 8.9765 5.79967C8.49788 5.95702 8.05705 6.2157 7.68274 6.55886C7.30843 6.90202 7.00904 7.32196 6.80407 7.79132C6.5991 8.26068 6.49316 8.76893 6.49314 9.28295C6.49246 9.75001 6.57993 10.2128 6.75077 10.646L6.84886 10.8916ZM1.18203 1.19566C1.1786 1.19566 1.17532 1.19705 1.1729 1.19953C1.17047 1.202 1.16911 1.20536 1.16911 1.20886V10.5214C1.16911 10.5249 1.17047 10.5283 1.1729 10.5308C1.17532 10.5332 1.1786 10.5346 1.18203 10.5346H6.34093C6.14759 9.93155 6.09678 9.2902 6.19268 8.66316C6.28859 8.03612 6.52847 7.44124 6.89266 6.92729C7.25686 6.41334 7.735 5.99494 8.28789 5.7064C8.84078 5.41786 9.45269 5.26739 10.0734 5.26732C10.1499 5.26732 10.227 5.26982 10.3038 5.2741V1.20851C10.3038 1.205 10.3025 1.20165 10.3001 1.19917C10.2976 1.19669 10.2944 1.1953 10.2909 1.1953H7.7209V3.95067C7.72096 4.04849 7.69753 4.14483 7.65268 4.23124C7.60784 4.31765 7.54293 4.39149 7.46367 4.44628C7.38441 4.50106 7.29321 4.53513 7.19807 4.54549C7.10293 4.55584 7.00675 4.54217 6.91798 4.50567L5.73526 4.02241L4.55253 4.50567C4.46376 4.54217 4.36759 4.55584 4.27245 4.54549C4.17731 4.53513 4.0861 4.50106 4.00684 4.44628C3.92758 4.39149 3.86268 4.31765 3.81783 4.23124C3.77298 4.14483 3.74956 4.04849 3.74961 3.95067V1.19566H1.18203ZM6.90053 3.59554L5.82393 3.15547C5.76786 3.1328 5.70545 3.1328 5.64938 3.15547L4.57312 3.59518V0.838745H6.90123L6.90053 3.59554ZM5.73665 2.78178C5.8109 2.78169 5.88448 2.79611 5.95344 2.82425L6.55144 3.06874V1.19566H4.92222V3.06945L5.52022 2.82532C5.58897 2.79674 5.66243 2.78184 5.73665 2.78142V2.78178Z" fill="#4278B8"/>
<path d="M11.5665 8.89175H10.4561V7.75642C10.4561 7.64519 10.4128 7.53851 10.3359 7.45987C10.259 7.38122 10.1546 7.33704 10.0459 7.33704C9.93707 7.33704 9.83275 7.38122 9.75582 7.45987C9.6789 7.53851 9.63568 7.64519 9.63568 7.75642V9.31112C9.63568 9.42235 9.6789 9.52901 9.75582 9.60766C9.83275 9.68631 9.93707 9.73049 10.0459 9.73049H11.5665C11.6753 9.73049 11.7796 9.68631 11.8566 9.60766C11.9335 9.52901 11.9767 9.42235 11.9767 9.31112C11.9767 9.1999 11.9335 9.09323 11.8566 9.01459C11.7796 8.93594 11.6753 8.89175 11.5665 8.89175Z" fill="#4278B8"/>
<path d="M11.5665 9.9104H10.0458C9.89082 9.91021 9.74221 9.84717 9.63259 9.73509C9.52297 9.62302 9.46131 9.47107 9.46112 9.31258V7.75787C9.46112 7.59932 9.52273 7.44725 9.63239 7.33514C9.74204 7.22302 9.89077 7.16003 10.0458 7.16003C10.2009 7.16003 10.3497 7.22302 10.4593 7.33514C10.569 7.44725 10.6306 7.59932 10.6306 7.75787V8.71475H11.5665C11.7216 8.71475 11.8703 8.77773 11.98 8.88984C12.0896 9.00196 12.1512 9.15402 12.1512 9.31258C12.1512 9.47113 12.0896 9.6232 11.98 9.73531C11.8703 9.84743 11.7216 9.9104 11.5665 9.9104ZM10.0458 7.51695C9.98338 7.51704 9.9235 7.54245 9.87933 7.58762C9.83516 7.63278 9.81031 7.694 9.81021 7.75787V9.31258C9.81021 9.37647 9.83504 9.43775 9.87923 9.48293C9.92342 9.52811 9.98335 9.55349 10.0458 9.55349H11.5665C11.629 9.55349 11.6889 9.52811 11.7331 9.48293C11.7773 9.43775 11.8021 9.37647 11.8021 9.31258C11.8021 9.24868 11.7773 9.18741 11.7331 9.14222C11.6889 9.09704 11.629 9.07167 11.5665 9.07167H10.2815V7.75787C10.2816 7.72613 10.2756 7.69466 10.2639 7.66529C10.2521 7.63591 10.2348 7.6092 10.2129 7.58669C10.191 7.56418 10.165 7.5463 10.1363 7.53409C10.1076 7.52188 10.0769 7.51557 10.0458 7.51552V7.51695Z" fill="#4278B8"/>
</svg>
