<svg width="24" height="23" viewBox="0 0 24 23" fill="none" xmlns="http://www.w3.org/2000/svg">
<path d="M19.3688 9.69598V2.07171C19.3682 1.60359 19.186 1.15483 18.8622 0.823814C18.5385 0.492803 18.0995 0.306556 17.6417 0.305908H2.02643C1.56857 0.306556 1.12964 0.492803 0.805876 0.823814C0.482116 1.15483 0.29995 1.60359 0.299316 2.07171L0.299316 18.0367C0.29995 18.5048 0.482116 18.9536 0.805876 19.2846C1.12964 19.6156 1.56857 19.8019 2.02643 19.8025H12.0803C12.6771 20.634 13.4568 21.3104 14.3564 21.7769C15.2561 22.2435 16.2504 22.4872 17.2592 22.4884C18.2679 22.4896 19.2628 22.2482 20.1635 21.7837C21.0642 21.3192 21.8454 20.6447 22.444 19.8146C23.0427 18.9845 23.442 18.0221 23.6097 17.0051C23.7774 15.9881 23.7088 14.945 23.4095 13.9601C23.1102 12.9752 22.5885 12.0761 21.8865 11.3353C21.1846 10.5946 20.3222 10.033 19.3688 9.69598ZM8.13896 1.74376H11.5315V5.71161L10.0953 5.12545C9.92774 5.05715 9.74096 5.05715 9.57343 5.12545L8.13716 5.71161L8.13896 1.74376ZM2.02643 18.3653C1.9412 18.3653 1.85946 18.3307 1.79919 18.2691C1.73892 18.2074 1.70507 18.1239 1.70507 18.0367V2.07171C1.70507 1.98457 1.73892 1.901 1.79919 1.83938C1.85946 1.77776 1.9412 1.74315 2.02643 1.74315H6.73141V6.77256C6.73142 6.89002 6.75958 7.00568 6.81343 7.10944C6.86728 7.2132 6.94517 7.30189 7.04029 7.36775C7.13542 7.43362 7.24488 7.47465 7.3591 7.48726C7.47332 7.49987 7.58883 7.48367 7.69551 7.44009L9.83376 6.56636L11.972 7.44009C12.0787 7.48367 12.1942 7.49987 12.3084 7.48726C12.4226 7.47465 12.5321 7.43362 12.6272 7.36775C12.7223 7.30189 12.8002 7.2132 12.8541 7.10944C12.9079 7.00568 12.9361 6.89002 12.9361 6.77256V1.74376H17.6411C17.7263 1.74376 17.8081 1.77837 17.8683 1.83999C17.9286 1.90161 17.9624 1.98518 17.9624 2.07232V9.37415C16.8579 9.25163 15.7411 9.42365 14.7209 9.87345C13.7007 10.3232 12.8118 11.0355 12.1407 11.9408C11.4697 12.8462 11.0394 13.9137 10.8917 15.0396C10.7441 16.1654 10.8841 17.3112 11.2982 18.3653H2.02643ZM17.2682 21.0574C16.274 21.0574 15.3021 20.756 14.4754 20.1913C13.6488 19.6265 13.0044 18.8238 12.624 17.8847C12.2435 16.9456 12.1439 15.9122 12.3379 14.9152C12.5319 13.9182 13.0106 13.0025 13.7137 12.2837C14.4167 11.5649 15.3124 11.0754 16.2875 10.8771C17.2627 10.6788 18.2734 10.7806 19.192 11.1696C20.1105 11.5586 20.8956 12.2173 21.448 13.0625C22.0004 13.9077 22.2952 14.9014 22.2952 15.9179C22.2927 17.2798 21.7622 18.5851 20.8201 19.5479C19.8779 20.5107 18.6009 21.0524 17.2688 21.0544L17.2682 21.0574Z" fill="#4278B8"/>
<path d="M17.2688 22.7982C16.1941 22.7977 15.1351 22.5344 14.1802 22.0303C13.3036 21.5639 12.5368 20.9082 11.933 20.1085H2.02634C1.48911 20.1078 0.974075 19.8893 0.5942 19.501C0.214326 19.1126 0.000633519 18.586 0 18.0367V2.07173C0.000633519 1.52247 0.214326 0.995894 0.5942 0.60751C0.974075 0.219126 1.48911 0.00064771 2.02634 0L17.6416 0C18.1788 0.00064771 18.6939 0.219126 19.0737 0.60751C19.4536 0.995894 19.6673 1.52247 19.6679 2.07173V9.48368C21.1383 10.0576 22.3656 11.14 23.1367 12.5429C23.9077 13.9457 24.1737 15.5804 23.8885 17.1629C23.6033 18.7455 22.7849 20.1759 21.5755 21.2056C20.3661 22.2354 18.8421 22.7995 17.2682 22.8L17.2688 22.7982ZM2.02634 0.611851C1.64778 0.612336 1.28487 0.7663 1.01719 1.03997C0.749512 1.31365 0.598921 1.68469 0.598446 2.07173V18.0367C0.598921 18.4238 0.749512 18.7948 1.01719 19.0685C1.28487 19.3422 1.64778 19.4961 2.02634 19.4966H12.234L12.3238 19.619C12.8859 20.3991 13.6153 21.0372 14.4561 21.4845C15.3245 21.9468 16.2897 22.1867 17.2688 22.1839C18.7184 22.1817 20.1205 21.6547 21.2264 20.6964C22.3323 19.7381 23.0706 18.4105 23.3104 16.9487C23.5502 15.487 23.276 13.9857 22.5364 12.711C21.7968 11.4362 20.6396 10.4704 19.27 9.98479L19.0689 9.91381V2.07173C19.0684 1.6848 18.9179 1.31385 18.6503 1.04019C18.3828 0.766533 18.02 0.612498 17.6416 0.611851H2.02634ZM17.2688 21.3603C16.2153 21.3603 15.1856 21.0409 14.3097 20.4426C13.4338 19.8442 12.7511 18.9938 12.348 17.9987C11.9449 17.0037 11.8394 15.9088 12.0449 14.8525C12.2504 13.7962 12.7577 12.8259 13.5026 12.0643C14.2475 11.3028 15.1965 10.7841 16.2297 10.574C17.2628 10.3639 18.3338 10.4717 19.307 10.8839C20.2802 11.296 21.1121 11.994 21.6973 12.8895C22.2826 13.785 22.5949 14.8378 22.5949 15.9148C22.593 17.3585 22.0313 18.7424 21.0328 19.7632C20.0344 20.784 18.6808 21.3584 17.2688 21.3603ZM17.2688 11.0812C16.3337 11.0812 15.4196 11.3647 14.6422 11.8958C13.8647 12.427 13.2587 13.1819 12.9009 14.0651C12.5431 14.9483 12.4495 15.9202 12.6319 16.8578C12.8143 17.7955 13.2646 18.6567 13.9258 19.3327C14.5869 20.0087 15.4293 20.4691 16.3464 20.6556C17.2635 20.8421 18.2141 20.7464 19.078 20.3805C19.9419 20.0147 20.6802 19.3951 21.1997 18.6003C21.7192 17.8054 21.9965 16.8708 21.9965 15.9148C21.9952 14.6331 21.4968 13.4042 20.6105 12.4977C19.7242 11.5913 18.5224 11.0812 17.2688 11.0794V11.0812ZM11.7409 18.6712H2.02634C1.8619 18.6709 1.7043 18.6039 1.58808 18.485C1.47186 18.3661 1.40651 18.2049 1.40635 18.0367V2.07173C1.40666 1.90371 1.47209 1.74267 1.58829 1.62386C1.70449 1.50506 1.862 1.43817 2.02634 1.43785H7.03054V6.77319C7.03054 6.84064 7.0467 6.90707 7.07761 6.96666C7.10852 7.02626 7.15323 7.0772 7.20784 7.11505C7.26246 7.1529 7.3253 7.17649 7.39089 7.18377C7.45648 7.19105 7.52282 7.1818 7.58411 7.15682L9.83366 6.23904L12.0832 7.15682C12.1446 7.18148 12.2109 7.19058 12.2764 7.18334C12.342 7.17609 12.4049 7.15272 12.4596 7.11521C12.5146 7.0777 12.5598 7.02695 12.5911 6.96741C12.6224 6.90788 12.6389 6.84139 12.6392 6.7738V1.43785H17.6434C17.8079 1.43801 17.9657 1.50491 18.082 1.62387C18.1984 1.74282 18.2638 1.90411 18.264 2.07234V9.71496L17.9324 9.67825C17.0757 9.58259 16.2088 9.67256 15.3883 9.94229C14.5678 10.212 13.8121 10.6555 13.1704 11.2438C12.5287 11.832 12.0155 12.5519 11.6641 13.3566C11.3128 14.1612 11.1311 15.0324 11.1311 15.9136C11.1299 16.7143 11.2799 17.5077 11.5727 18.2503L11.7409 18.6712ZM2.02634 2.0497C2.02047 2.0497 2.01483 2.05208 2.01068 2.05633C2.00653 2.06058 2.0042 2.06633 2.0042 2.07234V18.0367C2.0042 18.0427 2.00653 18.0485 2.01068 18.0528C2.01483 18.057 2.02047 18.0594 2.02634 18.0594H10.8702C10.5387 17.0255 10.4516 15.9261 10.616 14.8511C10.7804 13.7762 11.1917 12.7564 11.816 11.8754C12.4403 10.9943 13.26 10.277 14.2078 9.7824C15.1556 9.28776 16.2046 9.02981 17.2688 9.02969C17.3998 9.02969 17.5321 9.03397 17.6637 9.04132V2.07173C17.6637 2.06572 17.6614 2.05996 17.6572 2.05572C17.6531 2.05147 17.6475 2.04909 17.6416 2.04909H13.2358V6.77257C13.2359 6.94027 13.1958 7.10542 13.1189 7.25355C13.042 7.40168 12.9307 7.52826 12.7949 7.62219C12.659 7.71611 12.5026 7.77451 12.3395 7.79226C12.1764 7.81001 12.0116 7.78657 11.8594 7.724L9.83187 6.89556L7.80433 7.724C7.65216 7.78657 7.48729 7.81001 7.32419 7.79226C7.1611 7.77451 7.00475 7.71611 6.86887 7.62219C6.73299 7.52826 6.62173 7.40168 6.54485 7.25355C6.46797 7.10542 6.42781 6.94027 6.42791 6.77257V2.0497H2.02634ZM11.8295 6.16378L9.98387 5.40937C9.88775 5.37052 9.78077 5.37052 9.68465 5.40937L7.83964 6.16317V1.43785H11.8307L11.8295 6.16378ZM9.83426 4.76876C9.96154 4.76862 10.0877 4.79333 10.2059 4.84157L11.231 5.26069V2.0497H8.43809V5.26192L9.46323 4.84341C9.58109 4.7944 9.70702 4.76886 9.83426 4.76815V4.76876Z" fill="#4278B8"/>
<path d="M19.8283 15.2431H17.9247V13.2968C17.9247 13.1061 17.8506 12.9232 17.7187 12.7884C17.5868 12.6536 17.408 12.5778 17.2215 12.5778C17.035 12.5778 16.8561 12.6536 16.7243 12.7884C16.5924 12.9232 16.5183 13.1061 16.5183 13.2968V15.962C16.5183 16.1526 16.5924 16.3355 16.7243 16.4703C16.8561 16.6051 17.035 16.6809 17.2215 16.6809H19.8283C20.0148 16.6809 20.1937 16.6051 20.3255 16.4703C20.4574 16.3355 20.5315 16.1526 20.5315 15.962C20.5315 15.7713 20.4574 15.5884 20.3255 15.4536C20.1937 15.3188 20.0148 15.2431 19.8283 15.2431Z" fill="#4278B8"/>
<path d="M19.8282 16.9892H17.2214C16.9556 16.9889 16.7009 16.8808 16.5129 16.6887C16.325 16.4966 16.2193 16.2361 16.219 15.9644V13.2992C16.219 13.0273 16.3246 12.7667 16.5126 12.5745C16.7006 12.3823 16.9555 12.2743 17.2214 12.2743C17.4872 12.2743 17.7422 12.3823 17.9302 12.5745C18.1182 12.7667 18.2238 13.0273 18.2238 13.2992V14.9395H19.8282C20.0941 14.9395 20.349 15.0475 20.537 15.2397C20.725 15.4319 20.8306 15.6926 20.8306 15.9644C20.8306 16.2362 20.725 16.4969 20.537 16.6891C20.349 16.8812 20.0941 16.9892 19.8282 16.9892ZM17.2214 12.8861C17.1143 12.8863 17.0117 12.9299 16.9359 13.0073C16.8602 13.0847 16.8176 13.1897 16.8174 13.2992V15.9644C16.8174 16.0739 16.86 16.1789 16.9357 16.2564C17.0115 16.3339 17.1142 16.3774 17.2214 16.3774H19.8282C19.9354 16.3774 20.0381 16.3339 20.1139 16.2564C20.1896 16.1789 20.2322 16.0739 20.2322 15.9644C20.2322 15.8548 20.1896 15.7498 20.1139 15.6723C20.0381 15.5949 19.9354 15.5514 19.8282 15.5514H17.6253V13.2992C17.6256 13.2447 17.6153 13.1908 17.5951 13.1404C17.5749 13.0901 17.5452 13.0443 17.5077 13.0057C17.4702 12.9671 17.4256 12.9365 17.3764 12.9155C17.3273 12.8946 17.2746 12.8838 17.2214 12.8837V12.8861Z" fill="#4278B8"/>
</svg>
