<svg width="18" height="18" viewBox="0 0 18 18" fill="none" xmlns="http://www.w3.org/2000/svg">
<path d="M14.5265 7.27205V1.55384C14.5261 1.20275 14.3894 0.866181 14.1466 0.617922C13.9038 0.369663 13.5746 0.229978 13.2312 0.229492H1.51976C1.17636 0.229978 0.847166 0.369663 0.604346 0.617922C0.361526 0.866181 0.224901 1.20275 0.224426 1.55384L0.224426 13.5276C0.224901 13.8787 0.361526 14.2153 0.604346 14.4635C0.847166 14.7118 1.17636 14.8515 1.51976 14.852H9.06018C9.50778 15.4756 10.0925 15.9828 10.7673 16.3328C11.442 16.6827 12.1878 16.8655 12.9443 16.8664C13.7009 16.8672 14.4471 16.6862 15.1226 16.3378C15.7981 15.9895 16.384 15.4836 16.8329 14.861C17.2819 14.2384 17.5814 13.5166 17.7072 12.7539C17.833 11.9911 17.7815 11.2088 17.5571 10.4701C17.3326 9.73146 16.9413 9.05711 16.4149 8.50157C15.8884 7.94602 15.2416 7.52484 14.5265 7.27205ZM6.10416 1.30788H8.6486V4.28377L7.5714 3.84415C7.44575 3.79292 7.30566 3.79292 7.18001 3.84415L6.10281 4.28377L6.10416 1.30788ZM1.51976 13.774C1.45584 13.774 1.39453 13.7481 1.34933 13.7019C1.30413 13.6556 1.27874 13.593 1.27874 13.5276V1.55384C1.27874 1.48849 1.30413 1.42581 1.34933 1.3796C1.39453 1.33338 1.45584 1.30742 1.51976 1.30742H5.0485V5.07948C5.04851 5.16757 5.06963 5.25432 5.11001 5.33214C5.1504 5.40996 5.20882 5.47648 5.28016 5.52588C5.3515 5.57527 5.4336 5.60605 5.51926 5.6155C5.60493 5.62496 5.69156 5.61281 5.77157 5.58012L7.37526 4.92483L8.97894 5.58012C9.05895 5.61281 9.14558 5.62496 9.23125 5.6155C9.31692 5.60605 9.39901 5.57527 9.47035 5.52588C9.5417 5.47648 9.60012 5.40996 9.6405 5.33214C9.68089 5.25432 9.70201 5.16757 9.70201 5.07948V1.30788H13.2308C13.2947 1.30788 13.356 1.33384 13.4012 1.38005C13.4464 1.42627 13.4718 1.48895 13.4718 1.5543V7.03067C12.6434 6.93879 11.8058 7.0678 11.0406 7.40515C10.2754 7.74249 9.60875 8.27668 9.10547 8.95568C8.60219 9.63468 8.27947 10.4354 8.16873 11.2798C8.05799 12.1241 8.163 12.9835 8.47355 13.774H1.51976ZM12.9511 15.7931C12.2054 15.7931 11.4765 15.5671 10.8565 15.1435C10.2365 14.72 9.75327 14.1179 9.46791 13.4136C9.18255 12.7092 9.10789 11.9342 9.25336 11.1865C9.39884 10.4387 9.75791 9.7519 10.2852 9.21282C10.8125 8.67374 11.4842 8.30662 12.2156 8.15788C12.9469 8.00915 13.705 8.08549 14.3939 8.37724C15.0828 8.66899 15.6717 9.16305 16.0859 9.79694C16.5002 10.4308 16.7213 11.1761 16.7213 11.9385C16.7194 12.9599 16.3216 13.9389 15.615 14.661C14.9084 15.3831 13.9506 15.7894 12.9516 15.7908L12.9511 15.7931Z" fill="#4278B8"/>
<path d="M12.9516 17.0986C12.1455 17.0983 11.3513 16.9008 10.6351 16.5227C9.97773 16.1729 9.40263 15.6811 8.94976 15.0814H1.51975C1.11684 15.0809 0.730556 14.917 0.44565 14.6257C0.160744 14.3344 0.000475139 13.9395 0 13.5276V1.55379C0.000475139 1.14185 0.160744 0.74692 0.44565 0.455632C0.730556 0.164345 1.11684 0.000485782 1.51975 0L13.2312 0C13.6341 0.000485782 14.0204 0.164345 14.3053 0.455632C14.5902 0.74692 14.7505 1.14185 14.7509 1.55379V7.11276C15.8537 7.54321 16.7742 8.35501 17.3525 9.40715C17.9308 10.4593 18.1303 11.6853 17.9164 12.8722C17.7025 14.0591 17.0887 15.1319 16.1816 15.9042C15.2746 16.6766 14.1316 17.0997 12.9511 17.1L12.9516 17.0986ZM1.51975 0.458888C1.23584 0.459252 0.963652 0.574725 0.762893 0.779981C0.562134 0.985237 0.449191 1.26352 0.448834 1.55379V13.5276C0.449191 13.8178 0.562134 14.0961 0.762893 14.3014C0.963652 14.5066 1.23584 14.6221 1.51975 14.6225H9.17552L9.24285 14.7142C9.66446 15.2993 10.2115 15.7779 10.842 16.1134C11.4934 16.4601 12.2173 16.6401 12.9516 16.6379C14.0388 16.6362 15.0904 16.241 15.9198 15.5223C16.7492 14.8036 17.3029 13.8078 17.4828 12.7116C17.6626 11.6153 17.457 10.4893 16.9023 9.53324C16.3476 8.57718 15.4797 7.85283 14.4525 7.48859L14.3017 7.43536V1.55379C14.3013 1.2636 14.1884 0.985386 13.9878 0.780143C13.7871 0.5749 13.515 0.459374 13.2312 0.458888H1.51975ZM12.9516 16.0202C12.1615 16.0202 11.3892 15.7807 10.7323 15.3319C10.0754 14.8832 9.56336 14.2453 9.26101 13.4991C8.95867 12.7528 8.87956 11.9316 9.0337 11.1394C9.18783 10.3471 9.56828 9.61941 10.1269 9.04824C10.6856 8.47707 11.3974 8.08809 12.1723 7.93051C12.9471 7.77292 13.7503 7.8538 14.4802 8.16291C15.2102 8.47203 15.834 8.9955 16.273 9.66713C16.7119 10.3388 16.9462 11.1284 16.9462 11.9361C16.9448 13.0189 16.5234 14.0568 15.7746 14.8224C15.0258 15.588 14.0106 16.0188 12.9516 16.0202ZM12.9516 8.31092C12.2503 8.31092 11.5647 8.52353 10.9816 8.92188C10.3985 9.32022 9.94405 9.8864 9.67568 10.5488C9.40731 11.2112 9.33709 11.9402 9.47391 12.6434C9.61072 13.3466 9.94843 13.9926 10.4443 14.4995C10.9402 15.0065 11.572 15.3518 12.2598 15.4917C12.9476 15.6316 13.6606 15.5598 14.3085 15.2854C14.9564 15.011 15.5102 14.5464 15.8998 13.9502C16.2894 13.354 16.4974 12.6531 16.4974 11.9361C16.4964 10.9748 16.1226 10.0532 15.4579 9.37331C14.7931 8.69344 13.8918 8.31088 12.9516 8.30954V8.31092ZM8.80568 14.0034H1.51975C1.39643 14.0032 1.27822 13.953 1.19106 13.8637C1.10389 13.7745 1.05488 13.6536 1.05476 13.5276V1.55379C1.055 1.42778 1.10406 1.307 1.19122 1.2179C1.27837 1.12879 1.3965 1.07863 1.51975 1.07839H5.27291V5.07989C5.27291 5.13048 5.28503 5.1803 5.30821 5.225C5.33139 5.26969 5.36492 5.3079 5.40588 5.33629C5.44684 5.36467 5.49398 5.38237 5.54317 5.38783C5.59236 5.39329 5.64212 5.38635 5.68808 5.36761L7.37525 4.67928L9.06242 5.36761C9.10844 5.38611 9.15816 5.39294 9.20733 5.3875C9.25649 5.38207 9.30364 5.36454 9.34473 5.33641C9.38598 5.30828 9.41984 5.27021 9.44332 5.22556C9.4668 5.18091 9.47918 5.13104 9.47938 5.08035V1.07839H13.2325C13.3559 1.07851 13.4743 1.12868 13.5615 1.2179C13.6488 1.30711 13.6979 1.42808 13.698 1.55425V7.28622L13.4493 7.25869C12.8067 7.18694 12.1566 7.25442 11.5412 7.45672C10.9258 7.65902 10.3591 7.99161 9.87781 8.43282C9.39656 8.87403 9.01163 9.41395 8.74809 10.0174C8.48456 10.6209 8.34835 11.2743 8.34832 11.9352C8.34745 12.5357 8.45992 13.1308 8.67956 13.6877L8.80568 14.0034ZM1.51975 1.53727C1.51535 1.53727 1.51112 1.53906 1.50801 1.54225C1.5049 1.54543 1.50315 1.54975 1.50315 1.55425V13.5276C1.50315 13.5321 1.5049 13.5364 1.50801 13.5396C1.51112 13.5427 1.51535 13.5445 1.51975 13.5445H8.15263C7.90404 12.7691 7.83872 11.9445 7.96202 11.1383C8.08533 10.3322 8.39374 9.56731 8.86199 8.90651C9.33025 8.24572 9.945 7.70778 10.6559 7.3368C11.3667 6.96582 12.1535 6.77236 12.9516 6.77227C13.0499 6.77227 13.1491 6.77548 13.2478 6.78099V1.55379C13.2478 1.54929 13.246 1.54497 13.2429 1.54179C13.2398 1.5386 13.2356 1.53682 13.2312 1.53682H9.92687V5.07943C9.92694 5.2052 9.89683 5.32907 9.83916 5.44017C9.7815 5.55126 9.69806 5.6462 9.59615 5.71664C9.49424 5.78708 9.37698 5.83088 9.25466 5.8442C9.13233 5.85751 9.00868 5.83993 8.89455 5.793L7.3739 5.17167L5.85325 5.793C5.73912 5.83993 5.61547 5.85751 5.49315 5.8442C5.37082 5.83088 5.25356 5.78708 5.15165 5.71664C5.04974 5.6462 4.9663 5.55126 4.90864 5.44017C4.85098 5.32907 4.82086 5.2052 4.82093 5.07943V1.53727H1.51975ZM8.87211 4.62284L7.48791 4.05703C7.41581 4.02789 7.33558 4.02789 7.26349 4.05703L5.87973 4.62238V1.07839H8.87301L8.87211 4.62284ZM7.3757 3.57657C7.47116 3.57646 7.56576 3.595 7.65442 3.63118L8.42328 3.94552V1.53727H6.32857V3.94644L7.09742 3.63256C7.18582 3.5958 7.28027 3.57665 7.3757 3.57611V3.57657Z" fill="#4278B8"/>
<path d="M14.8712 11.4323H13.4435V9.97255C13.4435 9.82955 13.3879 9.69239 13.289 9.59127C13.1901 9.49016 13.056 9.43335 12.9161 9.43335C12.7762 9.43335 12.6421 9.49016 12.5432 9.59127C12.4443 9.69239 12.3887 9.82955 12.3887 9.97255V11.9715C12.3887 12.1145 12.4443 12.2516 12.5432 12.3527C12.6421 12.4538 12.7762 12.5106 12.9161 12.5106H14.8712C15.0111 12.5106 15.1452 12.4538 15.2441 12.3527C15.3431 12.2516 15.3986 12.1145 15.3986 11.9715C15.3986 11.8285 15.3431 11.6913 15.2441 11.5902C15.1452 11.4891 15.0111 11.4323 14.8712 11.4323Z" fill="#4278B8"/>
<path d="M14.8712 12.7419H12.9161C12.7168 12.7416 12.5257 12.6606 12.3848 12.5165C12.2438 12.3724 12.1645 12.177 12.1643 11.9732V9.97433C12.1643 9.77048 12.2435 9.57497 12.3845 9.43082C12.5255 9.28667 12.7167 9.20569 12.9161 9.20569C13.1155 9.20569 13.3067 9.28667 13.4477 9.43082C13.5887 9.57497 13.6679 9.77048 13.6679 9.97433V11.2046H14.8712C15.0706 11.2046 15.2618 11.2856 15.4028 11.4297C15.5438 11.5739 15.623 11.7694 15.623 11.9732C15.623 12.1771 15.5438 12.3726 15.4028 12.5168C15.2618 12.6609 15.0706 12.7419 14.8712 12.7419ZM12.9161 9.66458C12.8358 9.6647 12.7588 9.69737 12.702 9.75544C12.6452 9.8135 12.6133 9.89222 12.6131 9.97433V11.9732C12.6131 12.0554 12.6451 12.1342 12.7019 12.1923C12.7587 12.2504 12.8357 12.283 12.9161 12.283H14.8712C14.9516 12.283 15.0286 12.2504 15.0855 12.1923C15.1423 12.1342 15.1742 12.0554 15.1742 11.9732C15.1742 11.8911 15.1423 11.8123 15.0855 11.7542C15.0286 11.6961 14.9516 11.6635 14.8712 11.6635H13.2191V9.97433C13.2192 9.93352 13.2115 9.89306 13.1964 9.8553C13.1813 9.81753 13.159 9.78319 13.1308 9.75424C13.1027 9.7253 13.0692 9.70232 13.0324 9.68662C12.9955 9.67092 12.956 9.6628 12.9161 9.66274V9.66458Z" fill="#4278B8"/>
</svg>
