<svg width="16" height="16" viewBox="0 0 16 16" fill="none" xmlns="http://www.w3.org/2000/svg">
<path d="M12.9124 6.46403V1.38118C12.912 1.0691 12.7906 0.769925 12.5747 0.54925C12.3589 0.328576 12.0663 0.204411 11.761 0.203979H1.35087C1.04563 0.204411 0.753009 0.328576 0.537169 0.54925C0.32133 0.769925 0.199885 1.0691 0.199463 1.38118L0.199463 12.0245C0.199885 12.3366 0.32133 12.6358 0.537169 12.8565C0.753009 13.0771 1.04563 13.2013 1.35087 13.2017H8.05347C8.45133 13.7561 8.97113 14.207 9.57088 14.518C10.1706 14.829 10.8335 14.9915 11.506 14.9923C12.1785 14.9931 12.8418 14.8322 13.4423 14.5225C14.0427 14.2129 14.5635 13.7632 14.9626 13.2098C15.3617 12.6564 15.6279 12.0148 15.7397 11.3368C15.8515 10.6588 15.8058 9.96337 15.6062 9.30677C15.4067 8.65017 15.0589 8.05075 14.591 7.55693C14.123 7.06311 13.548 6.68873 12.9124 6.46403ZM5.42589 1.16255H7.68762V3.80778L6.7301 3.41701C6.61842 3.37147 6.4939 3.37147 6.38221 3.41701L5.42469 3.80778L5.42589 1.16255ZM1.35087 12.2436C1.29405 12.2436 1.23956 12.2205 1.19938 12.1794C1.1592 12.1383 1.13663 12.0826 1.13663 12.0245V1.38118C1.13663 1.32309 1.1592 1.26737 1.19938 1.22629C1.23956 1.18522 1.29405 1.16214 1.35087 1.16214H4.48753V4.51508C4.48753 4.59338 4.50631 4.6705 4.54221 4.73967C4.5781 4.80884 4.63003 4.86797 4.69345 4.91188C4.75686 4.95579 4.82984 4.98314 4.90599 4.99155C4.98213 4.99995 5.05914 4.98915 5.13026 4.9601L6.55576 4.37762L7.98125 4.9601C8.05238 4.98915 8.12938 4.99995 8.20553 4.99155C8.28168 4.98314 8.35465 4.95579 8.41807 4.91188C8.48148 4.86797 8.53341 4.80884 8.56931 4.73967C8.6052 4.6705 8.62398 4.59338 8.62399 4.51508V1.16255H11.7606C11.8175 1.16255 11.872 1.18562 11.9121 1.2267C11.9523 1.26778 11.9749 1.32349 11.9749 1.38159V6.24947C11.2385 6.1678 10.494 6.28247 9.81385 6.58234C9.1337 6.8822 8.54109 7.35703 8.09373 7.96059C7.64637 8.56415 7.3595 9.27586 7.26106 10.0264C7.16263 10.777 7.25598 11.5408 7.53202 12.2436H1.35087ZM11.5121 14.0383C10.8493 14.0383 10.2013 13.8374 9.6502 13.4609C9.09909 13.0844 8.66954 12.5493 8.41589 11.9232C8.16224 11.2971 8.09587 10.6082 8.22518 9.94351C8.35449 9.27887 8.67367 8.66835 9.14236 8.18916C9.61105 7.70998 10.2082 7.38365 10.8583 7.25144C11.5084 7.11923 12.1822 7.18708 12.7946 7.44642C13.4069 7.70575 13.9303 8.14492 14.2986 8.70838C14.6668 9.27184 14.8634 9.93429 14.8634 10.612C14.8617 11.5199 14.5081 12.3901 13.88 13.032C13.2519 13.6739 12.4005 14.035 11.5125 14.0363L11.5121 14.0383Z" fill="#4278B8"/>
<path d="M11.5125 15.1988C10.796 15.1985 10.09 15.0229 9.45345 14.6869C8.86909 14.376 8.3579 13.9388 7.95534 13.4056H1.35089C0.992743 13.4052 0.649383 13.2596 0.396134 13.0006C0.142884 12.7417 0.000422346 12.3907 0 12.0245V1.38115C0.000422346 1.01498 0.142884 0.663929 0.396134 0.405007C0.649383 0.146084 0.992743 0.000431806 1.35089 0L11.7611 0C12.1192 0.000431806 12.4626 0.146084 12.7158 0.405007C12.9691 0.663929 13.1115 1.01498 13.112 1.38115V6.32246C14.0922 6.70507 14.9104 7.42668 15.4244 8.36191C15.9385 9.29715 16.1158 10.3869 15.9257 11.442C15.7356 12.497 15.19 13.4506 14.3837 14.1371C13.5774 14.8236 12.5614 15.1997 11.5121 15.2L11.5125 15.1988ZM1.35089 0.4079C1.09852 0.408224 0.85658 0.510867 0.678127 0.693316C0.499674 0.875766 0.399281 1.12313 0.398964 1.38115V12.0245C0.399281 12.2825 0.499674 12.5299 0.678127 12.7123C0.85658 12.8948 1.09852 12.9974 1.35089 12.9977H8.15602L8.21587 13.0793C8.59063 13.5994 9.07689 14.0248 9.63737 14.323C10.2163 14.6312 10.8598 14.7912 11.5125 14.7892C12.4789 14.7878 13.4137 14.4365 14.1509 13.7976C14.8882 13.1588 15.3804 12.2736 15.5402 11.2992C15.7001 10.3247 15.5173 9.32381 15.0242 8.47399C14.5312 7.62416 13.7597 6.98029 12.8466 6.65653L12.7126 6.60921V1.38115C12.7123 1.1232 12.6119 0.875898 12.4336 0.69346C12.2552 0.511022 12.0134 0.408332 11.7611 0.4079H1.35089ZM11.5125 14.2402C10.8102 14.2402 10.1237 14.0273 9.5398 13.6284C8.95587 13.2295 8.50076 12.6625 8.23201 11.9992C7.96326 11.3358 7.89294 10.6059 8.02995 9.90166C8.16696 9.19745 8.50514 8.55059 9.00172 8.04288C9.49831 7.53517 10.131 7.18941 10.8198 7.04934C11.5086 6.90926 12.2225 6.98115 12.8713 7.25592C13.5201 7.53069 14.0747 7.996 14.4649 8.593C14.855 9.19 15.0633 9.89189 15.0633 10.6099C15.062 11.5723 14.6875 12.4949 14.0219 13.1755C13.3563 13.856 12.4538 14.2389 11.5125 14.2402ZM11.5125 7.38748C10.8891 7.38748 10.2798 7.57647 9.76145 7.93056C9.24314 8.28464 8.83916 8.78791 8.60061 9.37673C8.36205 9.96555 8.29964 10.6135 8.42125 11.2386C8.54286 11.8636 8.84304 12.4378 9.28383 12.8885C9.72462 13.3391 10.2862 13.6461 10.8976 13.7704C11.509 13.8947 12.1427 13.8309 12.7187 13.587C13.2946 13.3431 13.7868 12.9301 14.1331 12.4002C14.4795 11.8702 14.6643 11.2472 14.6643 10.6099C14.6635 9.75541 14.3312 8.93615 13.7403 8.33183C13.1495 7.7275 12.3483 7.38745 11.5125 7.38626V7.38748ZM7.82727 12.4475H1.35089C1.24127 12.4473 1.1362 12.4026 1.05872 12.3233C0.981239 12.244 0.937671 12.1366 0.937565 12.0245V1.38115C0.937776 1.26914 0.981391 1.16178 1.05886 1.08258C1.13633 1.00337 1.24134 0.958781 1.35089 0.958566H4.68703V4.51546C4.68703 4.56043 4.6978 4.60471 4.71841 4.64444C4.73901 4.68417 4.76882 4.71814 4.80523 4.74337C4.84164 4.7686 4.88354 4.78433 4.92726 4.78918C4.97099 4.79404 5.01521 4.78787 5.05607 4.77121L6.55578 4.15936L8.05548 4.77121C8.09639 4.78766 8.14059 4.79372 8.18429 4.78889C8.22799 4.78406 8.2699 4.76848 8.30643 4.74347C8.3431 4.71847 8.37319 4.68463 8.39406 4.64494C8.41493 4.60525 8.42594 4.56093 8.42612 4.51586V0.958566H11.7623C11.872 0.958674 11.9771 1.00327 12.0547 1.08258C12.1323 1.16188 12.1759 1.26941 12.176 1.38156V6.47664L11.955 6.45217C11.3838 6.38839 10.8059 6.44837 10.2589 6.62819C9.71186 6.80802 9.20806 7.10365 8.78028 7.49584C8.3525 7.88802 8.01033 8.36796 7.77608 8.90437C7.54183 9.44078 7.42075 10.0216 7.42073 10.6091C7.41995 11.1429 7.51993 11.6718 7.71516 12.1669L7.82727 12.4475ZM1.35089 1.36647C1.34698 1.36647 1.34322 1.36806 1.34045 1.37089C1.33769 1.37372 1.33613 1.37756 1.33613 1.38156V12.0245C1.33613 12.0285 1.33769 12.0323 1.34045 12.0352C1.34322 12.038 1.34698 12.0396 1.35089 12.0396H7.24678C7.02581 11.3503 6.96775 10.6174 7.07735 9.90075C7.18696 9.18414 7.46111 8.50428 7.87733 7.9169C8.29355 7.32953 8.84 6.85136 9.47187 6.5216C10.1038 6.19184 10.8031 6.01987 11.5125 6.01979C11.5999 6.01979 11.688 6.02265 11.7758 6.02754V1.38115C11.7758 1.37715 11.7743 1.37331 11.7715 1.37048C11.7687 1.36765 11.765 1.36606 11.7611 1.36606H8.82389V4.51505C8.82395 4.62684 8.79718 4.73695 8.74592 4.8357C8.69467 4.93446 8.6205 5.01884 8.52991 5.08146C8.43932 5.14407 8.33509 5.18301 8.22636 5.19484C8.11763 5.20668 8.00772 5.19105 7.90627 5.14933L6.55458 4.59704L5.20289 5.14933C5.10144 5.19105 4.99153 5.20668 4.8828 5.19484C4.77406 5.18301 4.66983 5.14407 4.57925 5.08146C4.48866 5.01884 4.41449 4.93446 4.36323 4.8357C4.31198 4.73695 4.28521 4.62684 4.28527 4.51505V1.36647H1.35089ZM7.88632 4.10919L6.65592 3.60625C6.59184 3.58035 6.52051 3.58035 6.45643 3.60625L5.22643 4.10878V0.958566H7.88712L7.88632 4.10919ZM6.55617 3.17918C6.64103 3.17908 6.72512 3.19555 6.80393 3.22772L7.48736 3.50713V1.36647H5.62539V3.50794L6.30882 3.22894C6.38739 3.19627 6.47135 3.17924 6.55617 3.17877V3.17918Z" fill="#4278B8"/>
<path d="M13.2189 10.162H11.9498V8.86448C11.9498 8.73737 11.9004 8.61545 11.8125 8.52557C11.7246 8.43569 11.6053 8.38519 11.481 8.38519C11.3567 8.38519 11.2374 8.43569 11.1495 8.52557C11.0616 8.61545 11.0122 8.73737 11.0122 8.86448V10.6413C11.0122 10.7684 11.0616 10.8903 11.1495 10.9802C11.2374 11.0701 11.3567 11.1206 11.481 11.1206H13.2189C13.3432 11.1206 13.4624 11.0701 13.5504 10.9802C13.6383 10.8903 13.6877 10.7684 13.6877 10.6413C13.6877 10.5142 13.6383 10.3923 13.5504 10.3024C13.4624 10.2125 13.3432 10.162 13.2189 10.162Z" fill="#4278B8"/>
<path d="M13.2189 11.3261H11.481C11.3038 11.3259 11.134 11.2539 11.0087 11.1258C10.8834 10.9977 10.813 10.824 10.8127 10.6429V8.8661C10.8127 8.6849 10.8832 8.51111 11.0085 8.38298C11.1338 8.25485 11.3038 8.18286 11.481 8.18286C11.6582 8.18286 11.8282 8.25485 11.9535 8.38298C12.0789 8.51111 12.1493 8.6849 12.1493 8.8661V9.95968H13.2189C13.3961 9.95968 13.5661 10.0317 13.6914 10.1598C13.8167 10.2879 13.8872 10.4617 13.8872 10.6429C13.8872 10.8241 13.8167 10.9979 13.6914 11.126C13.5661 11.2542 13.3961 11.3261 13.2189 11.3261ZM11.481 8.59076C11.4096 8.59087 11.3412 8.61991 11.2907 8.67153C11.2402 8.72314 11.2118 8.79311 11.2117 8.8661V10.6429C11.2117 10.7159 11.2401 10.786 11.2906 10.8376C11.3411 10.8892 11.4096 10.9182 11.481 10.9182H13.2189C13.2903 10.9182 13.3588 10.8892 13.4093 10.8376C13.4598 10.786 13.4882 10.7159 13.4882 10.6429C13.4882 10.5699 13.4598 10.4999 13.4093 10.4482C13.3588 10.3966 13.2903 10.3676 13.2189 10.3676H11.7503V8.8661C11.7505 8.82982 11.7436 8.79386 11.7302 8.76029C11.7167 8.72672 11.6969 8.6962 11.6719 8.67047C11.6469 8.64474 11.6171 8.62431 11.5844 8.61036C11.5516 8.5964 11.5165 8.58918 11.481 8.58913V8.59076Z" fill="#4278B8"/>
</svg>
